<svg width="52" height="52" viewBox="0 0 52 52" fill="none" xmlns="http://www.w3.org/2000/svg">
<path d="M26 0.5C40.0833 0.5 51.5 11.9167 51.5 26C51.5 40.0833 40.0833 51.5 26 51.5C11.9167 51.5 0.5 40.0833 0.5 26C0.5 11.9167 11.9167 0.5 26 0.5Z" stroke="url(#paint0_linear_11_8)"/>
<path d="M21.1 32.3C20.7134 32.6866 20.0866 32.6866 19.7 32.3C19.3134 31.9134 19.3134 31.2866 19.7 30.9L24.6 26L19.7 21.1C19.3134 20.7134 19.3134 20.0866 19.7 19.7C20.0866 19.3134 20.7134 19.3134 21.1 19.7L26 24.6L30.9 19.7C31.2866 19.3134 31.9134 19.3134 32.3 19.7C32.6866 20.0866 32.6866 20.7134 32.3 21.1L27.4 26L32.3 30.9C32.6866 31.2866 32.6866 31.9134 32.3 32.3C31.9134 32.6866 31.2866 32.6866 30.9 32.3L26 27.4L21.1 32.3Z" fill="black"/>
<defs>
<linearGradient id="paint0_linear_11_8" x1="8.95454" y1="8.38636" x2="44.1818" y2="45.8864" gradientUnits="userSpaceOnUse">
<stop stop-color="#242020"/>
<stop offset="1" stop-color="#666666" stop-opacity="0.7"/>
</linearGradient>
</defs>
</svg>
