<svg width="52" height="52" viewBox="0 0 52 52" fill="none" xmlns="http://www.w3.org/2000/svg">
<path d="M26 0.5C40.0833 0.5 51.5 11.9167 51.5 26C51.5 40.0833 40.0833 51.5 26 51.5C11.9167 51.5 0.5 40.0833 0.5 26C0.5 11.9167 11.9167 0.5 26 0.5Z" stroke="url(#paint0_linear_181_300)"/>
<path d="M18.0833 32C17.485 32 17 31.515 17 30.9167C17 30.3184 17.485 29.8333 18.0833 29.8333H33.9167C34.515 29.8333 35 30.3184 35 30.9167C35 31.515 34.515 32 33.9167 32H18.0833ZM18.0833 26.5833C17.485 26.5833 17 26.0983 17 25.5C17 24.9017 17.485 24.4167 18.0833 24.4167H33.9167C34.515 24.4167 35 24.9017 35 25.5C35 26.0983 34.515 26.5833 33.9167 26.5833H18.0833ZM18.0833 21.1667C17.485 21.1667 17 20.6816 17 20.0833C17 19.485 17.485 19 18.0833 19H33.9167C34.515 19 35 19.485 35 20.0833C35 20.6816 34.515 21.1667 33.9167 21.1667H18.0833Z" fill="black"/>
<defs>
<linearGradient id="paint0_linear_181_300" x1="8.95454" y1="8.38636" x2="44.1818" y2="45.8864" gradientUnits="userSpaceOnUse">
<stop stop-color="#242020"/>
<stop offset="1" stop-color="#666666" stop-opacity="0.7"/>
</linearGradient>
</defs>
</svg>
