<svg width="81" height="81" viewBox="0 0 81 81" fill="none" xmlns="http://www.w3.org/2000/svg">
<g clip-path="url(#clip0_135_940)">
<path d="M1.71522 40.0152C1.71333 46.8208 3.49157 53.466 6.87285 59.3231L1.39185 79.3351L21.8717 73.9652C27.5361 77.0488 33.8827 78.6646 40.3321 78.6651H40.3491C61.6398 78.6651 78.971 61.3402 78.9801 40.0457C78.9842 29.727 74.9694 20.0239 67.675 12.7239C60.3818 5.42447 50.6822 1.40241 40.3475 1.39771C19.0542 1.39771 1.72432 18.7217 1.71553 40.0152" fill="url(#paint0_linear_135_940)"/>
<path d="M0.33593 40.0027C0.333733 47.0532 2.1757 53.936 5.67753 60.0028L0 80.7322L21.2141 75.1699C27.0593 78.3568 33.6404 80.0371 40.3371 80.0396H40.3543C62.4089 80.0396 80.3627 62.0915 80.3721 40.0347C80.3759 29.3452 76.2166 19.2934 68.6616 11.7318C61.1057 4.17119 51.0592 0.00439535 40.3543 0C18.2959 0 0.344721 17.9456 0.33593 40.0027ZM12.9697 58.958L12.1776 57.7006C8.84784 52.4061 7.09032 46.2877 7.09284 40.0052C7.09974 21.6719 22.0201 6.75628 40.3669 6.75628C49.2518 6.76005 57.6017 10.2236 63.882 16.5077C70.162 22.7924 73.6177 31.1467 73.6155 40.0322C73.6073 58.3655 58.6867 73.283 40.3543 73.283H40.3411C34.3719 73.2799 28.5176 71.6768 23.4121 68.6475L22.1971 67.927L9.60823 71.2276L12.9697 58.958Z" fill="url(#paint1_linear_135_940)"/>
<path d="M30.3525 23.279C29.6034 21.6141 28.815 21.5805 28.1027 21.5513C27.5194 21.5262 26.8525 21.5281 26.1863 21.5281C25.5195 21.5281 24.436 21.779 23.5202 22.7789C22.6035 23.7798 20.0203 26.1985 20.0203 31.1178C20.0203 36.0372 23.6034 40.7917 24.1029 41.4594C24.603 42.126 31.0202 52.5442 41.1836 56.5521C49.6302 59.8829 51.3491 59.2204 53.1822 59.0534C55.0157 58.887 59.0984 56.6353 59.9313 54.3005C60.7648 51.9659 60.7648 49.9648 60.5149 49.5466C60.265 49.13 59.5982 48.8797 58.5982 48.3799C57.5983 47.8801 52.6821 45.4608 51.7657 45.127C50.8489 44.7936 50.1824 44.6272 49.5156 45.6284C48.8487 46.6281 46.9339 48.8797 46.3503 49.5466C45.7673 50.215 45.1836 50.2982 44.184 49.798C43.1834 49.2963 39.9632 48.2418 36.1427 44.8357C33.1702 42.1853 31.1634 38.9123 30.5801 37.9111C29.9968 36.9115 30.5176 36.3696 31.019 35.8714C31.4683 35.4234 32.0193 34.7038 32.5197 34.1202C33.0183 33.5362 33.1846 33.1196 33.5181 32.4527C33.8518 31.7853 33.6848 31.2013 33.4352 30.7012C33.1846 30.2011 31.2416 25.256 30.3525 23.279Z" fill="white"/>
</g>
<defs>
<linearGradient id="paint0_linear_135_940" x1="3880.81" y1="7795.14" x2="3880.81" y2="1.39771" gradientUnits="userSpaceOnUse">
<stop stop-color="#1FAF38"/>
<stop offset="1" stop-color="#60D669"/>
</linearGradient>
<linearGradient id="paint1_linear_135_940" x1="4018.6" y1="8073.22" x2="4018.6" y2="0" gradientUnits="userSpaceOnUse">
<stop stop-color="#F9F9F9"/>
<stop offset="1" stop-color="white"/>
</linearGradient>
<clipPath id="clip0_135_940">
<rect width="80.3721" height="81" fill="white"/>
</clipPath>
</defs>
</svg>
